<?xml version="1.0"?><svg xmlns="http://www.w3.org/2000/svg"  viewBox="0 0 24 24" width="32px" height="32px">    <path d="M 12 0 L 0 5 L 4 6.6679688 L 4 11.767578 C 3.372 12.329578 3 13.14 3 14 C 3 15.276 3.8231875 16.397406 4.9921875 16.816406 C 6.3961875 20.028406 9.043 22 12 22 C 14.957 22 17.603813 20.028406 19.007812 16.816406 C 20.176813 16.397406 21 15.276 21 14 C 21 13.14 20.628 12.329578 20 11.767578 L 20 6.6679688 L 22 5.8339844 L 22 11 L 24 11 L 24 5 L 12 0 z M 12 2.1679688 L 18.800781 5 L 18 5.3320312 L 18 6.6660156 L 18 8.171875 C 17.687 8.060875 17.35 8 17 8 L 7 8 C 6.65 8 6.313 8.060875 6 8.171875 L 6 6.6679688 L 6 5.3320312 L 5.1992188 5 L 12 2.1679688 z M 7 10 L 17 10 C 17.552 10 18 10.448 18 11 L 18 12.851562 L 18.501953 13.138672 C 18.813953 13.317672 19 13.64 19 14 C 19 14.492 18.628719 14.913469 18.136719 14.980469 L 17.552734 15.0625 L 17.341797 15.613281 C 16.302797 18.319281 14.256 20 12 20 C 9.744 20 7.6981563 18.318281 6.6601562 15.613281 L 6.4492188 15.0625 L 5.8632812 14.982422 C 5.3702813 14.914422 5 14.492 5 14 C 5 13.64 5.1860469 13.317672 5.4980469 13.138672 L 6 12.851562 L 6 11 C 6 10.448 6.448 10 7 10 z"/></svg>